<svg xmlns="http://www.w3.org/2000/svg" xmlns:xlink="http://www.w3.org/1999/xlink" version="1.1" x="0px" y="0px" viewBox="0 0 73.7012 92.12462500000001" enable-background="new 0 0 73.7012 73.6997" xml:space="preserve"><path d="M36.8506,73.6997c20.3193,0,36.8506-16.5303,36.8506-36.8496l0,0c0,0,0,0,0-0.0005l0,0l0,0  C73.7012,16.5303,57.1699,0,36.8506,0c-1.5654,0-2.835,1.269-2.835,2.8345s1.2695,2.8345,2.835,2.8345  c17.1934,0,31.1807,13.9878,31.1807,31.1807c0,6.5371-2.0254,12.6074-5.4766,17.6245c-4.1924-4.0845-9.2559-7.0771-14.7686-8.7896  c3.708-3.1221,6.0732-7.792,6.0732-13.0078c0-9.3784-7.6299-17.0078-17.0088-17.0078s-17.0088,7.6294-17.0088,17.0078  c0,5.2163,2.3652,9.8857,6.0742,13.0083c-5.5137,1.7124-10.5771,4.7051-14.7686,8.7896c-3.4521-5.0176-5.4775-11.0879-5.4775-17.625  c0-1.5654-1.2695-2.8345-2.835-2.8345S0,35.2842,0,36.8496C0,57.1689,16.5312,73.6997,36.8506,73.6997z M25.5117,32.6768  c0-6.252,5.0859-11.3389,11.3389-11.3389s11.3389,5.0869,11.3389,11.3389s-5.0859,11.3389-11.3389,11.3389  S25.5117,38.9287,25.5117,32.6768z M36.8506,49.6846c8.3281-0.0005,16.2354,3.3193,22.0693,9.1699  c-5.6484,5.665-13.4561,9.1763-22.0693,9.1763S20.4297,64.52,14.7812,58.855C20.6152,53.0049,28.5215,49.6846,36.8506,49.6846z"/><text x="0" y="88.6997" fill="#000000" font-size="5px" font-weight="bold" font-family="'Helvetica Neue', Helvetica, Arial-Unicode, Arial, Sans-serif">Created by Michele Ficeli</text><text x="0" y="93.6997" fill="#000000" font-size="5px" font-weight="bold" font-family="'Helvetica Neue', Helvetica, Arial-Unicode, Arial, Sans-serif">from the Noun Project</text></svg>