<svg xmlns="http://www.w3.org/2000/svg" viewBox="0 0 32 40" x="0px" y="0px"><title>Artboard 6</title><g data-name="Layer 2"><path d="M24.86,26.47H10.75a2.92,2.92,0,0,1-2.92-2.92V12.45a2.92,2.92,0,0,1,2.92-2.92H31.9l-4.13,4.93v9.09A2.92,2.92,0,0,1,24.86,26.47ZM10.75,11.53a.91.91,0,0,0-.92.92v11.1a.91.91,0,0,0,.92.92H24.86a.91.91,0,0,0,.91-.92V13.74l1.85-2.21Z"/><path d="M9.83,22.47H7.15a2.92,2.92,0,0,1-2.92-2.92V10.46L.1,5.53H21.25a2.92,2.92,0,0,1,2.92,2.92v3.08H10.75a.91.91,0,0,0-.92.92ZM4.38,7.53,6.23,9.74v9.81a.91.91,0,0,0,.92.92h.68v-8a2.92,2.92,0,0,1,2.92-2.92H22.17V8.45a.91.91,0,0,0-.92-.92Z"/><rect x="11.75" y="17.16" width="12.73" height="1.27" rx="0.64" ry="0.64"/><rect x="14.94" y="14.81" width="6.37" height="1.27" rx="0.64" ry="0.64"/><rect x="14.94" y="19.51" width="6.37" height="1.27" rx="0.64" ry="0.64"/></g><text x="0" y="47" fill="#000000" font-size="5px" font-weight="bold" font-family="'Helvetica Neue', Helvetica, Arial-Unicode, Arial, Sans-serif">Created by Phoenix group</text><text x="0" y="52" fill="#000000" font-size="5px" font-weight="bold" font-family="'Helvetica Neue', Helvetica, Arial-Unicode, Arial, Sans-serif">from the Noun Project</text></svg>