<svg xmlns="http://www.w3.org/2000/svg" xmlns:xlink="http://www.w3.org/1999/xlink" viewBox="0 0 100 125" version="1.1" x="0px" y="0px"><title>chat1</title><desc>Created with Sketch.</desc><g stroke="none" stroke-width="1" fill="none" fill-rule="evenodd"><path d="M36.419733,73.9592177 C39.4121357,70.3240061 43.8449356,68.2221635 48.5192181,68.2221635 L79.25,68.2221635 C82.9779221,68.2221635 86,65.162779 86,61.388837 L86,24.9444286 C86,21.1704866 82.9779221,18.1111021 79.25,18.1111021 L20.75,18.1111021 C17.0220779,18.1111021 14,21.1704866 14,24.9444286 L14,61.388837 C14,65.162779 17.0220779,68.2221635 20.75,68.2221635 L23,68.2221635 C24.5045893,68.2221635 25.9096303,68.9834013 26.7442263,70.2507495 L32.4012095,78.8409747 L36.419733,73.9592177 Z M5,61.388837 L5,24.9444286 C5,16.1385639 12.0515152,9 20.75,9 L79.25,9 C87.9484848,9 95,16.1385639 95,24.9444286 L95,61.388837 C95,70.1947018 87.9484848,77.3332656 79.25,77.3332656 L48.5192181,77.3332656 C46.5159542,77.3332656 44.6161828,78.2340553 43.3337245,79.7920031 L35.4569958,89.3607604 C33.5313248,91.7000917 29.9243087,91.5050316 28.2557737,88.9713327 L20.5911501,77.3324714 C11.9658284,77.246194 5,70.1410358 5,61.388837 Z M32,48 C29.2385763,48 27,45.7614237 27,43 C27,40.2385763 29.2385763,38 32,38 C34.7614237,38 37,40.2385763 37,43 C37,45.7614237 34.7614237,48 32,48 Z M50,48 C47.2385763,48 45,45.7614237 45,43 C45,40.2385763 47.2385763,38 50,38 C52.7614237,38 55,40.2385763 55,43 C55,45.7614237 52.7614237,48 50,48 Z M68,48 C65.2385763,48 63,45.7614237 63,43 C63,40.2385763 65.2385763,38 68,38 C70.7614237,38 73,40.2385763 73,43 C73,45.7614237 70.7614237,48 68,48 Z" fill="#000000" fill-rule="nonzero"/></g><text x="0" y="115" fill="#000000" font-size="5px" font-weight="bold" font-family="'Helvetica Neue', Helvetica, Arial-Unicode, Arial, Sans-serif">Created by Mohammad Iqbal</text><text x="0" y="120" fill="#000000" font-size="5px" font-weight="bold" font-family="'Helvetica Neue', Helvetica, Arial-Unicode, Arial, Sans-serif">from the Noun Project</text></svg>