<svg xmlns="http://www.w3.org/2000/svg" xmlns:xlink="http://www.w3.org/1999/xlink" version="1.1" x="0px" y="0px" viewBox="0 0 100 125" style="enable-background:new 0 0 100 100;" xml:space="preserve"><g><path d="M50.2,61.5c-6.3,0-11.5-5.2-11.5-11.5s5.2-11.5,11.5-11.5S61.7,43.7,61.7,50S56.5,61.5,50.2,61.5z M50.2,41.5   c-4.7,0-8.5,3.8-8.5,8.5s3.8,8.5,8.5,8.5s8.5-3.8,8.5-8.5S54.9,41.5,50.2,41.5z"/></g><g><path d="M54.7,51.3c-0.8,0-1.5-0.7-1.5-1.5c0-1.7-1.4-3-3-3c-0.9,0-1.6,0.3-2.2,1c-0.6,0.6-1.5,0.7-2.1,0.1   c-0.6-0.6-0.7-1.5-0.1-2.1c1.1-1.2,2.8-2,4.4-2c3.3,0,6,2.7,6,6C56.2,50.7,55.5,51.3,54.7,51.3z"/></g><g><path d="M64.5,65.8c-0.4,0-0.8-0.1-1.1-0.4c-0.6-0.6-0.6-1.5,0-2.1c7.3-7.3,7.3-19.2,0-26.5c-0.6-0.6-0.6-1.5,0-2.1   c0.6-0.6,1.5-0.6,2.1,0c8.5,8.5,8.5,22.3,0,30.8C65.3,65.7,64.9,65.8,64.5,65.8z"/></g><g><path d="M71.4,72.8c-0.4,0-0.8-0.1-1.1-0.4c-0.6-0.6-0.6-1.5,0-2.1c11.1-11.1,11.1-29.2,0-40.4c-0.6-0.6-0.6-1.5,0-2.1   c0.6-0.6,1.5-0.6,2.1,0C84.8,40,84.8,60,72.5,72.3C72.2,72.6,71.8,72.8,71.4,72.8z"/></g><g><path d="M78.4,79.8c-0.4,0-0.8-0.1-1.1-0.4c-0.6-0.6-0.6-1.5,0-2.1c15-15,15-39.4,0-54.4c-0.6-0.6-0.6-1.5,0-2.1   c0.6-0.6,1.5-0.6,2.1,0c16.2,16.2,16.2,42.5,0,58.6C79.2,79.6,78.8,79.8,78.4,79.8z"/></g><g><path d="M35.5,65.8c-0.4,0-0.8-0.1-1.1-0.4c-8.5-8.5-8.5-22.3,0-30.8c0.6-0.6,1.5-0.6,2.1,0c0.6,0.6,0.6,1.5,0,2.1   c-7.3,7.3-7.3,19.2,0,26.5c0.6,0.6,0.6,1.5,0,2.1C36.3,65.7,35.9,65.8,35.5,65.8z"/></g><g><path d="M28.6,72.8c-0.4,0-0.8-0.1-1.1-0.4C15.2,60,15.2,40,27.5,27.7c0.6-0.6,1.5-0.6,2.1,0c0.6,0.6,0.6,1.5,0,2.1   c-11.1,11.1-11.1,29.2,0,40.4c0.6,0.6,0.6,1.5,0,2.1C29.4,72.6,29,72.8,28.6,72.8z"/></g><g><path d="M21.6,79.8c-0.4,0-0.8-0.1-1.1-0.4c-16.2-16.2-16.2-42.5,0-58.6c0.6-0.6,1.5-0.6,2.1,0c0.6,0.6,0.6,1.5,0,2.1   c-15,15-15,39.4,0,54.4c0.6,0.6,0.6,1.5,0,2.1C22.4,79.6,22,79.8,21.6,79.8z"/></g><text x="0" y="115" fill="#000000" font-size="5px" font-weight="bold" font-family="'Helvetica Neue', Helvetica, Arial-Unicode, Arial, Sans-serif">Created by Tomasz Pasternak</text><text x="0" y="120" fill="#000000" font-size="5px" font-weight="bold" font-family="'Helvetica Neue', Helvetica, Arial-Unicode, Arial, Sans-serif">from the Noun Project</text></svg>