<svg xmlns="http://www.w3.org/2000/svg" xmlns:xlink="http://www.w3.org/1999/xlink" version="1.1" x="0px" y="0px" viewBox="0 0 100 125" enable-background="new 0 0 100 100" xml:space="preserve"><path d="M76.5,52.407c-5.776-1.964-12.293-3.612-15.952-4.484c2.201-3.885,5.002-10.235,5.349-15.1  c0.368-5.14-0.631-12.467-2.941-15.834c-4.251-6.193-12.6-6.265-12.957-6.265c-0.354,0-8.702,0.071-12.955,6.266  c-2.306,3.362-3.306,10.689-2.941,15.833c0.35,4.87,3.15,11.218,5.351,15.1c-3.659,0.872-10.176,2.521-15.95,4.484  c-9.304,3.161-9.611,29.61-9.579,34.881c0.007,1.1,0.9,1.987,2,1.987h68.154c1.1,0,1.993-0.888,2-1.987  C86.109,82.018,85.801,55.568,76.5,52.407z M40.341,19.253c3.062-4.46,9.593-4.528,9.66-4.528c0.065,0,6.596,0.068,9.655,4.528  c1.518,2.211,2.591,8.543,2.25,13.285c-0.288,4.046-3.042,10.6-5.539,14.597c-0.122,0.195-0.258,0.376-0.402,0.546  c-0.14,0.116-0.269,0.246-0.373,0.397c-2.077,1.974-5.542,2-5.581,2v0.001c-0.004,0-0.007-0.001-0.011-0.001  s-0.007,0.001-0.011,0.001v-0.001c-0.039,0-3.503-0.026-5.579-1.998c-0.106-0.153-0.236-0.285-0.379-0.402  c-0.143-0.169-0.277-0.348-0.398-0.542c-2.495-3.994-5.251-10.548-5.541-14.598C37.755,27.793,38.828,21.461,40.341,19.253z   M24.789,56.194c6.643-2.259,14.53-4.143,17.341-4.788c1.917,1.588,4.238,2.234,5.87,2.496v31.373H30.892l-1.652-18.179  c-0.101-1.101-1.068-1.894-2.173-1.812c-1.101,0.101-1.911,1.073-1.812,2.173l1.62,17.817h-8.95  C18.08,66.793,21.967,57.153,24.789,56.194z M73.126,85.275l1.621-17.816c0.1-1.101-0.711-2.073-1.811-2.174  c-1.119-0.084-2.073,0.711-2.174,1.811l-1.653,18.18H52V53.901c1.633-0.261,3.953-0.908,5.869-2.495  c2.81,0.645,10.694,2.527,17.344,4.788c2.821,0.959,6.707,10.599,6.862,29.081H73.126z"/><path d="M66.429,65.277h-8.428c-1.104,0-2,0.896-2,2s0.896,2,2,2h8.428c1.104,0,2-0.896,2-2S67.533,65.277,66.429,65.277z"/><text x="0" y="115" fill="#000000" font-size="5px" font-weight="bold" font-family="'Helvetica Neue', Helvetica, Arial-Unicode, Arial, Sans-serif">Created by Diego Naive</text><text x="0" y="120" fill="#000000" font-size="5px" font-weight="bold" font-family="'Helvetica Neue', Helvetica, Arial-Unicode, Arial, Sans-serif">from the Noun Project</text></svg>