<svg xmlns="http://www.w3.org/2000/svg" xmlns:xlink="http://www.w3.org/1999/xlink" version="1.1" x="0px" y="0px" viewBox="0 0 512 640" style="enable-background:new 0 0 512 512;" xml:space="preserve"><g><g><g><g><path d="M258.014,236.932c-39.402,0-71.458-32.056-71.458-71.457s32.056-71.457,71.458-71.457c3.98,0,7.976,0.331,11.874,0.983      c5.446,0.912,9.123,6.066,8.211,11.514c-0.91,5.446-6.055,9.127-11.514,8.212c-2.81-0.471-5.693-0.709-8.571-0.709      c-28.374,0-51.458,23.083-51.458,51.457s23.083,51.457,51.458,51.457c28.373,0,51.457-23.083,51.457-51.457      c0-10.262-3.009-20.167-8.702-28.645c-3.079-4.585-1.858-10.798,2.727-13.877c4.584-3.078,10.798-1.858,13.877,2.727      c7.915,11.786,12.099,25.547,12.099,39.795C329.471,204.876,297.415,236.932,258.014,236.932z"/></g><g><path d="M394.631,224.282c-30.267,0-54.89-24.623-54.89-54.89c0-30.266,24.623-54.89,54.89-54.89s54.89,24.624,54.89,54.89      C449.521,199.659,424.897,224.282,394.631,224.282z M394.631,134.503c-19.238,0-34.89,15.651-34.89,34.89      s15.651,34.89,34.89,34.89s34.89-15.651,34.89-34.89S413.869,134.503,394.631,134.503z"/></g><g><path d="M145.342,356.525h-5.067c-5.523,0-10-4.477-10-10c0-3.734,2.047-6.99,5.08-8.707c0.481-33.7,14.54-65.191,39.035-87.969      c-13.667-16.147-33.719-25.567-55.163-25.567c-39.865,0-72.298,32.433-72.298,72.298v16.625c0,11.267,7.852,20.945,18.789,23.32      h24.558c5.523,0,10,4.478,10,10c0,5.523-4.477,10-10,10H64.737c-0.6,0-1.199-0.054-1.789-0.161      c-20.872-3.795-36.02-21.945-36.02-43.159V296.58c0-50.893,41.404-92.298,92.297-92.298c31.122,0,59.945,15.536,77.101,41.559      c2.851,4.325,1.928,10.111-2.128,13.333c-24.694,19.622-38.857,48.938-38.857,80.43v6.922      C155.342,352.049,150.865,356.525,145.342,356.525z"/></g><g><path d="M449.12,356.525h-78.435c-5.522,0-10-4.477-10-10v-6.922c0-30.213-13.234-58.765-36.309-78.334      c-1.144-0.97-2.401-1.981-3.849-3.095c-4.203-3.232-5.152-9.185-2.162-13.564c17.237-25.252,45.747-40.328,76.265-40.328      c21.213,0,41.93,7.375,58.335,20.768c16.168,13.2,27.489,31.646,31.878,51.94c1.167,5.398-2.263,10.721-7.661,11.888      c-5.395,1.168-10.72-2.263-11.888-7.661c-7.133-32.99-36.852-56.935-70.664-56.935c-20.873,0-40.551,9.01-54.199,24.471      c24.876,22.57,39.379,54.195,40.216,87.772h67.49c6.994-1.526,13.031-6.194,16.26-12.616c2.479-4.935,8.489-6.925,13.426-4.444      c4.935,2.48,6.924,8.491,4.443,13.426c-6.155,12.248-17.878,21.023-31.357,23.474      C450.318,356.472,449.72,356.525,449.12,356.525z"/></g><g><path d="M332.613,417.982H189.921c-5.523,0-10-4.477-10-10c0-5.522,4.477-10,10-10h141.736      c16.871-3.47,29.028-18.314,29.028-35.618v-22.761c0-21.608-6.636-42.277-19.189-59.771c-3.22-4.487-2.192-10.735,2.295-13.955      c4.486-3.22,10.733-2.192,13.955,2.295c15.007,20.913,22.939,45.614,22.939,71.432v22.761c0,27.259-19.465,50.582-46.284,55.457      C333.812,417.929,333.213,417.982,332.613,417.982z M150.024,392.667c-3.705,0-7.264-2.066-8.996-5.621      c-3.773-7.74-5.687-16.044-5.687-24.682v-22.761c0-37.627,16.917-72.649,46.415-96.088      c21.887-17.392,48.256-26.584,76.257-26.584c27.277,0,53.11,8.78,74.708,25.39c1.703,1.311,3.205,2.52,4.593,3.696      c4.211,3.573,4.729,9.884,1.155,14.095c-3.573,4.212-9.885,4.729-14.095,1.155c-1.142-0.968-2.399-1.979-3.847-3.093      c-18.069-13.897-39.687-21.243-62.515-21.243c-23.436,0-45.503,7.691-63.815,22.242c-24.694,19.622-38.857,48.938-38.857,80.43      v22.761c0,5.575,1.233,10.931,3.664,15.918c2.42,4.965,0.357,10.951-4.607,13.371      C152.988,392.341,151.495,392.666,150.024,392.667z"/></g><g><path d="M119.226,224.282c-30.266,0-54.889-24.623-54.889-54.89c0-30.266,24.623-54.89,54.889-54.89      c30.267,0,54.89,24.624,54.89,54.89C174.116,199.659,149.493,224.282,119.226,224.282z M119.226,134.503      c-19.238,0-34.889,15.651-34.889,34.89s15.651,34.89,34.889,34.89c19.238,0,34.89-15.651,34.89-34.89      S138.464,134.503,119.226,134.503z"/></g></g></g></g><text x="0" y="527" fill="#000000" font-size="5px" font-weight="bold" font-family="'Helvetica Neue', Helvetica, Arial-Unicode, Arial, Sans-serif">Created by Flatart</text><text x="0" y="532" fill="#000000" font-size="5px" font-weight="bold" font-family="'Helvetica Neue', Helvetica, Arial-Unicode, Arial, Sans-serif">from the Noun Project</text></svg>