<svg xmlns="http://www.w3.org/2000/svg" data-name="Layer 1" viewBox="0 0 100 125" x="0px" y="0px"><title>Essential Icons</title><path d="M28,72H9a3,3,0,0,1-3-3V32a3,3,0,0,1,3-3H28a3,3,0,0,1,3,3V69A3,3,0,0,1,28,72ZM12,66H25V35H12Z"/><path d="M53,90a3,3,0,0,1-1.84-.63L26.16,70A3,3,0,0,1,25,67.59V32.41A3,3,0,0,1,26.16,30l25-19.44A3,3,0,0,1,56,13V87a3,3,0,0,1-3,3ZM31,66.13,50,80.9V19.1L31,33.87Z"/><path d="M65.88,75.52a3,3,0,0,1-1.31-5.7,22,22,0,0,0,0-39.63,3,3,0,1,1,2.62-5.4,28,28,0,0,1,0,50.43A3,3,0,0,1,65.88,75.52Z"/><path d="M65.61,60.83a3,3,0,0,1-2.48-4.68,11,11,0,0,0,0-12.3,3,3,0,1,1,5-3.36,17,17,0,0,1,0,19A3,3,0,0,1,65.61,60.83Z"/><text x="0" y="115" fill="#000000" font-size="5px" font-weight="bold" font-family="'Helvetica Neue', Helvetica, Arial-Unicode, Arial, Sans-serif">Created by Blair Adams</text><text x="0" y="120" fill="#000000" font-size="5px" font-weight="bold" font-family="'Helvetica Neue', Helvetica, Arial-Unicode, Arial, Sans-serif">from the Noun Project</text></svg>