<svg xmlns:x="http://ns.adobe.com/Extensibility/1.0/" xmlns:i="http://ns.adobe.com/AdobeIllustrator/10.0/" xmlns:graph="http://ns.adobe.com/Graphs/1.0/" xmlns="http://www.w3.org/2000/svg" xmlns:xlink="http://www.w3.org/1999/xlink" version="1.1" x="0px" y="0px" viewBox="0 0 100 125" enable-background="new 0 0 100 100" xml:space="preserve"><metadata><sfw xmlns="http://ns.adobe.com/SaveForWeb/1.0/"><slices/><sliceSourceBounds width="1447.2" height="1444.2" x="1" y="-1446.1" bottomLeftOrigin="true"/></sfw></metadata><path d="M14.5,26.9c0,9.3,7.6,16.9,16.9,16.9c9.3,0,16.9-7.6,16.9-16.9c0-9.3-7.6-16.9-16.9-16.9C22.1,10,14.5,17.6,14.5,26.9z   M43.4,26.9c0,6.6-5.3,11.9-11.9,11.9s-11.9-5.3-11.9-11.9S24.9,15,31.5,15S43.4,20.4,43.4,26.9z M45.2,47.2H17.7  C8.5,47.2,1,54.7,1,63.9v23.6C1,88.9,2.1,90,3.5,90h55.9c1.4,0,2.5-1.1,2.5-2.5V63.9C61.9,54.7,54.4,47.2,45.2,47.2z M56.9,85H6  V63.9c0-6.4,5.2-11.7,11.7-11.7h27.5c6.4,0,11.7,5.2,11.7,11.7V85z M96.5,90H70.4c-1.4,0-2.5-1.1-2.5-2.5S69,85,70.4,85H94V63.9  c0-6.4-5.2-11.7-11.7-11.7h-17c-1.4,0-2.5-1.1-2.5-2.5s1.1-2.5,2.5-2.5h17c9.2,0,16.7,7.5,16.7,16.7v23.6C99,88.9,97.9,90,96.5,90z   M68.5,10c-9.3,0-16.9,7.6-16.9,16.9c0,9.3,7.6,16.9,16.9,16.9c9.3,0,16.9-7.6,16.9-16.9C85.5,17.6,77.9,10,68.5,10z M68.5,38.8  c-6.6,0-11.9-5.3-11.9-11.9S62,15,68.5,15s11.9,5.3,11.9,11.9S75.1,38.8,68.5,38.8z"/><text x="0" y="115" fill="#000000" font-size="5px" font-weight="bold" font-family="'Helvetica Neue', Helvetica, Arial-Unicode, Arial, Sans-serif">Created by Gregor Cresnar</text><text x="0" y="120" fill="#000000" font-size="5px" font-weight="bold" font-family="'Helvetica Neue', Helvetica, Arial-Unicode, Arial, Sans-serif">from the Noun Project</text></svg>